<svg width="24" height="24" viewBox="0 0 24 24" fill="none" xmlns="http://www.w3.org/2000/svg">
  <path fill="#25D366" d="M.057 24l1.687-6.163a11.867 11.867 0 01-1.62-6.003C.122 5.281 5.408 0 12.061 0c3.184 0 6.167 1.24 8.413 3.488a11.82 11.82 0 013.481 8.414c-.003 6.652-5.289 11.94-11.944 11.94a11.9 11.9 0 01-6.002-1.616L.057 24z"/>
  <path fill="#fff" d="M17.472 14.382c-.297-.149-1.758-.867-2.03-.967-.273-.099-.472-.148-.67.15-.197.297-.767.966-.94 1.164-.173.198-.347.223-.644.075-.297-.149-1.255-.463-2.39-1.475-.883-.788-1.48-1.761-1.653-2.059-.173-.297-.018-.458.13-.606.134-.133.298-.347.446-.52.149-.174.198-.298.298-.497.099-.198.05-.372-.025-.521-.075-.149-.669-1.612-.916-2.207-.242-.579-.487-.5-.669-.51l-.57-.01c-.198 0-.52.074-.792.372-.272.297-1.04 1.016-1.04 2.479 0 1.462 1.065 2.875 1.213 3.074.149.198 2.102 3.208 5.077 4.499.709.306 1.262.489 1.694.625.712.226 1.36.194 1.872.118.571-.085 1.758-.719 2.006-1.413.248-.694.248-1.288.173-1.412-.074-.124-.272-.198-.57-.347z"/>
</svg>
